<svg width="564" height="507" fill="none" xmlns="http://www.w3.org/2000/svg"><path d="M383.913 189.552c15.039 0 27.232-12.212 27.232-27.276S398.952 135 383.913 135c-15.04 0-27.232 12.212-27.232 27.276s12.192 27.276 27.232 27.276ZM21.681 43c4.97 0 9-4.253 9-9.5s-4.03-9.5-9-9.5-9 4.253-9 9.5 4.03 9.5 9 9.5Z" fill="#FFC1B5"/><path d="M46.226 440.834v11.59h100.088v-11.59H46.226Z" fill="#FFA800"/><path d="m162.804 500.987-24.794-149.01h15.162a6.123 6.123 0 0 0 4.332-1.798 6.142 6.142 0 0 0 0-8.678 6.122 6.122 0 0 0-4.332-1.797H39.489a6.12 6.12 0 0 0-4.332 1.797 6.142 6.142 0 0 0 0 8.678 6.121 6.121 0 0 0 4.332 1.798H54.53l-24.794 149.01a5.163 5.163 0 0 0 1.15 4.175 5.146 5.146 0 0 0 3.922 1.821 5.133 5.133 0 0 0 5.024-4.053l32.852-150.953h47.171L152.7 502.93a5.154 5.154 0 0 0 5.03 4.053 5.14 5.14 0 0 0 4.957-3.781 5.162 5.162 0 0 0 .116-2.215Z" fill="#FFA800"/><path d="M153.171 351.977a6.12 6.12 0 0 0 4.332-1.798 6.141 6.141 0 0 0 0-8.678 6.12 6.12 0 0 0-4.332-1.797H39.488a6.12 6.12 0 0 0-4.332 1.797 6.143 6.143 0 0 0 0 8.678 6.121 6.121 0 0 0 4.332 1.798H54.53v.19h18.14l.043-.19h47.17l.043.19h18.14v-.19h15.105Z" fill="#FFA800"/><path d="M159.91 440.637h72.365c.899-15.39 4.11-35.804 6.772-63.383 2.368-24.454 4.405-44.981 4.272-61.927-.225-28.247-72.365 5.94-72.365 5.94 0 6.171 1.244 12.097 1.279 17.839.084 14.919-7.461 27.613-12.85 45.607-8.171 27.283-1.363 55.924-1.363 55.924h1.89Z" fill="#4856DF"/><path d="M236.131 499.285H172.78a3.87 3.87 0 0 0-2.116 1.652 3.887 3.887 0 0 0 .768 4.983c.7.602 1.591.934 2.514.937l93.225.126c.822-9.078-4.328-15.911-18.857-26.037-8.291 7.199-12.183 18.339-12.183 18.339Z" fill="#727FFB"/><path d="M245.047 478.743a27.47 27.47 0 0 1-7.651-7.417c-4.918-7.227-5.958-16.959-5.15-30.689h-62.711a255.71 255.71 0 0 0 2.213 30.689c1.602 11.52 3.766 19.444 5.501 27.776h-3.295a3.798 3.798 0 0 0-1.173.183h63.35s3.893-11.14 12.183-18.297a146.586 146.586 0 0 0-3.267-2.245Z" fill="#D69285"/><path d="M233.005 428.308a82.86 82.86 0 0 1-7.834-24.58c-4.587-31.928-1.868-48.296-14.803-62.631h-37.847" stroke="#727FFB" stroke-width="4" stroke-linecap="round" stroke-linejoin="round"/><path d="m256.604 443.36.07.169 55.869-26.206c-4.349-13.033-8.895-30.372-16.363-53.067-6.998-21.238-11.628-37.107-16.012-49.386a30.253 30.253 0 0 1-40.567-4.721 30.37 30.37 0 0 1 1.006-40.894c-29.825-13.497-135.751-22.301-135.751-22.301l-59.923-8.866c-3.161 5.235-5.852 13.532-7.313 23.222h20.936v22.427a17.151 17.151 0 0 1-5.02 12.085 17.095 17.095 0 0 1-12.073 5.009h-2.031c5.72 21.111 20.431 38.894 50.459 38.894h121.194c12.934 14.32 10.215 30.689 14.803 62.63 3.751 26.129 21.534 45.39 21.534 45.39l9.182-4.385Z" fill="#4856DF"/><path d="m341.713 473.373-55.643 25.278a4.589 4.589 0 0 0-1.335 6.07 4.575 4.575 0 0 0 5.93 1.832l84.435-39.407c-3.309-9.149-11.818-12.667-31.974-16.186l-.864-.162a57.6 57.6 0 0 0-.549 22.575Z" fill="#727FFB"/><path d="M342.262 450.771c-5.804-1.112-10.356-3.047-14.115-5.975-6.927-5.404-11.171-14.201-15.604-27.444l-55.869 26.206c4.736 10.9 11.382 22.364 17.712 32.371 5.529 8.712 10.806 16.305 14.354 21.392l-2.017.979a4.29 4.29 0 0 0-.653.394l55.644-25.278a57.594 57.594 0 0 1 .548-22.645Z" fill="#D69285"/><path d="M262.477 320.605a30.101 30.101 0 0 0 17.691-5.736c-8.719-24.545-16.279-34.77-39.14-45.424l-.422-.19a30.355 30.355 0 0 0-7.936 15.55 30.39 30.39 0 0 0 1.938 17.356 30.329 30.329 0 0 0 11.17 13.409 30.253 30.253 0 0 0 16.699 5.021v.014ZM41.462 300.831c4.536 0 8.887-1.805 12.095-5.017a17.149 17.149 0 0 0 5.013-12.112v-22.427H37.633c-1.847 12.167-1.742 26.481 1.799 39.535h.836l1.194.021Z" fill="#727FFB"/><path d="M210.052 341.407h20.424" stroke="#727FFB" stroke-width="4" stroke-linecap="round" stroke-linejoin="round"/><path d="M297.901 124.537s-36.766-42.28-80.206-57.613" stroke="#8E4F43" stroke-width="4" stroke-linecap="round" stroke-linejoin="round"/><path d="M182.582 83.44c-1.335-3.23 3.119-8.297 10.538-12.575-10.047-2.506-17.185-7.171-16.468-11.091.716-3.92 9.035-5.763 19.321-4.553-5.41-6.615-7.792-12.934-5.403-15.482 3.042-3.258 12.695.852 21.555 9.149 7.728 7.248 12.295 15.312 11.325 19.415-.541 4.18-7.658 10.105-17.438 14.159-11.248 4.672-21.723 5.109-23.43.978Z" fill="#FF7054"/><path d="M223.815 81.435c7.086 0 12.829-5.754 12.829-12.85 0-7.097-5.743-12.85-12.829-12.85-7.085 0-12.829 5.753-12.829 12.85 0 7.097 5.744 12.85 12.829 12.85Z" fill="#8E4F43"/><path d="M250.845 85.134c3.525-1.31 1.923-14.404-3.578-29.243-5.501-14.84-12.818-25.807-16.343-24.497-3.525 1.311-1.922 14.404 3.579 29.244s12.818 25.807 16.342 24.496Z" fill="#8E4F43"/><path d="M250.217 87.711s5.452 15.003 2.726 30.689" stroke="#3A1F10" stroke-width="4" stroke-linecap="round" stroke-linejoin="round"/><path d="M150.797 27.952c-11.621 13.096-23.972 15.989-23.972 15.989-7.988-8.726-22.482-8.726-24.695 3.638-2.41 13.701 14.508 17.473 14.508 17.473s4.264 17.677-2.277 26.41c-5.775 7.741-13.194 9.015-28.398 10.718 19.813 33.532 40.047 30.886 46.785 30.886 16.159 0 20.711-18.782 21.983-28.465a96.055 96.055 0 0 0-11.241-3.174l-2.178-13.09s10.166 3.632 18.885-1.456c8.719-5.088 10.897-14.552 7.988-29.098-1.721-8.62-1.658-19.282-3.133-28.81-5.754.978-14.255-1.02-14.255-1.02Zm120.87 73.059c-3.084-12.364-27.231-19.07-27.231-19.07s1.447-27.755-4.771-28.641c-4.763-.704-9.534 10.914-13.616 33.419-4.566 25.151-2.044 71.603-2.044 71.603s-5.052-4.596-12.218-10.992a8.84 8.84 0 0 1-7.728 4.926 8.859 8.859 0 0 1 1.052 9.267 8.845 8.845 0 0 1-7.818 5.067 8.867 8.867 0 0 1 1.052 9.268 8.844 8.844 0 0 1-7.818 5.067 8.865 8.865 0 0 1 .833 9.696 8.848 8.848 0 0 1-3.592 3.586 8.822 8.822 0 0 1-4.969 1.017c14.916 9.726 35.192 21.069 48.702 21.069 70.805-.028 42.211-107.097 40.166-115.282Z" fill="#D69285"/><path d="M191.553 190.165a8.882 8.882 0 0 0-1.047-9.268 8.818 8.818 0 0 0 4.629-1.419 8.85 8.85 0 0 0 3.98-8.432 8.859 8.859 0 0 0-1.843-4.483 8.836 8.836 0 0 0 7.817-5.068 8.855 8.855 0 0 0-1.051-9.267 8.83 8.83 0 0 0 7.728-4.926c-12.351-11.02-30.976-27.36-40.89-34.7-4.798-3.554-10.911-6.186-16.159-8.001-1.236 9.711-5.761 28.465-21.92 28.465-6.71 0-26.972 2.646-46.784-30.886l-6.366.704c-21.92 2.442-31.896 14.257-37.77 28.373-3.632 8.733-6.54 24.736-6.54 24.736a299.606 299.606 0 0 0-3.472 44.334l28.504 26.424 76.524 1.893c6.126-9.05 17.367-25.763 21.077-32.174 4.763-8.184 5.445-15.003 5.445-15.003s8.178 6.404 19.384 13.716a8.833 8.833 0 0 0 8.754-5.018Z" fill="#FFA800"/><path d="M158.792 11.943C150.08 1.035 126.109-6.241 107.224 7.58 88.338 21.4 89.793 43.955 90.516 52.688c0 0-20.332-6.552-34.861 8.726A36.84 36.84 0 0 0 46.74 76.96a36.882 36.882 0 0 0-.528 17.921s-26.754-.753-31.96 24.011c-2.958 14.074 2.565 23.441 8.691 29.239a39.13 39.13 0 0 0 12.372 7.861s2.909-16.003 6.541-24.736c5.874-14.116 15.85-25.932 37.77-28.373l6.366-.704c15.204-1.703 22.623-2.998 28.398-10.718 6.534-8.733 2.248-26.41 2.248-26.41s-16.939-3.772-14.529-17.46c2.185-12.363 16.707-12.363 24.695-3.637 0 0 12.351-2.907 23.972-16.003 0 0 8.501 1.999 14.297 1.02-.99-6.558-2.733-12.575-6.281-17.03Z" fill="#A15842"/><path d="M273.178 110.73c-2.059-.95-3.288-3.343-2.937-7.917 0 0-4.258 5.348-8.789 2.97-4.532-2.379-2.719-7.502-2.719-7.502s-4.089 2.73-7.49-.704c-3.084-3.089-.702-8.184-.702-8.184s-4.525 1.851-6.127-1.365c-2.016-4.025.436-8.24 3.092-11.47" stroke="#8E4F43" stroke-width="8" stroke-linecap="round" stroke-linejoin="round"/><path d="M44.92 95.473a32.661 32.661 0 0 0 4.103 10.31" stroke="#703928" stroke-width="4" stroke-miterlimit="10" stroke-linecap="round"/><path d="m222.642 159.201 1.707 21.26" stroke="#3A1F10" stroke-width="4" stroke-linecap="round" stroke-linejoin="round"/><path d="M161.026 157.942c4.447 8.022 4.391 17.649 3.815 23.356m-43.988-.837-21.786.683" stroke="#FFCD6C" stroke-width="4" stroke-linecap="round" stroke-linejoin="round"/><path d="M140.94 89.682a81.509 81.509 0 0 1-8.895-4.13m14.34 24.326-1.188-7.537" stroke="#A15842" stroke-width="4" stroke-linecap="round" stroke-linejoin="round"/><path d="m89.048 52.962 1.51 12.583" stroke="#703928" stroke-width="4" stroke-miterlimit="10" stroke-linecap="round"/><path d="M161.027 67.937c-1.539 1-6.64 1.33-9.085-3.124m-31.77-11.203-6.808-3.406m38.241.386c-1.089 1.485-6.225 4.364-10.089 1.077m26.635-3.223a6.315 6.315 0 0 1-4.764-.886m-4.447 3.42c.78 1.766 1.531 3.715 1.37 4.461a4.146 4.146 0 0 1-1.532 2.266" stroke="#3A1F10" stroke-width="4" stroke-linecap="round" stroke-linejoin="round"/><path d="m116.441 61.85-9.295 8.783a4.06 4.06 0 0 0-.279 5.607c.454.523 1.034.92 1.684 1.155l10.989 3.906a4.038 4.038 0 0 0 3.898-.674 4.053 4.053 0 0 0 1.462-3.682l-1.693-12.667a4.053 4.053 0 0 0-2.646-3.275 4.04 4.04 0 0 0-4.12.847Z" fill="#F4E6D8"/><path d="M249.881 64.186s4.763-2.73 8.852-1.365c6.323 2.111 5.396 8.008 5.396 8.008s8.866-3.201 10.588 6.186c0 0 7.995 1.795 6.196 9.803 0 0 6.471.345 5.185 8.838-1.285 8.494-6.941 15.552-10.342 15.552-3.512 0-5.992-2.16-5.515-8.444 0 0-4.257 5.348-8.789 2.97-4.531-2.379-2.719-7.502-2.719-7.502s-4.089 2.73-7.489-.704c-3.085-3.089-.703-8.184-.703-8.184s-4.524 1.85-6.126-1.365c-3.408-6.819 5.965-14.152 7.489-16.361l-2.023-7.432Z" fill="#D69285"/><path d="M247.857 91.828c4.679-4.3 12.646-12.413 16.426-20.928m-7.833 30.745a75.228 75.228 0 0 0 18.653-23.926m-6.619 28.979c2.108-2.576 9.478-11.83 13.131-19.155" stroke="#8E4F43" stroke-width="4" stroke-linecap="round" stroke-linejoin="round"/><path d="M267.164 263.323h-117.92l26.803-84.819a12.337 12.337 0 0 1 4.47-6.222 12.3 12.3 0 0 1 7.277-2.377h99.646a12.304 12.304 0 0 1 9.94 5.045 12.349 12.349 0 0 1 1.807 11.014l-22.166 70.139a10.363 10.363 0 0 1-3.752 5.221 10.339 10.339 0 0 1-6.105 1.999Z" fill="#3A1F10"/><path d="M80.807 253.773a7.348 7.348 0 0 0 1.07 6.547 7.32 7.32 0 0 0 5.906 3.003h179.381a10.331 10.331 0 0 0 6.096-2.009 10.362 10.362 0 0 0 3.74-5.225l.702-2.316H80.807Z" fill="#3A1F10"/><path d="M249.101 209.313c-2.74-3.758-15.197 6.165-16.11 6.988-.478-.823-6.956-10.746-11.712-6.988-4.124 3.258 4.918 17.804 7.356 21.513a1.074 1.074 0 0 0 1.602 0c4.433-3.744 21.245-18.29 18.864-21.513Z" fill="#FFA800"/><path d="M237.719 206.657c.99-3.184.948-6.028-.093-6.353-1.041-.325-2.687 1.993-3.677 5.177-.99 3.184-.949 6.028.092 6.353 1.041.324 2.688-1.993 3.678-5.177ZM13.24 186.421a8.842 8.842 0 0 0 9.134-1.703 8.852 8.852 0 0 0 1.732 4.533 8.825 8.825 0 0 0 13.022 1.224 8.859 8.859 0 0 0 5.598 7.454 8.828 8.828 0 0 0 9.156-1.705 8.844 8.844 0 0 0 3.775 6.505 8.799 8.799 0 0 0 3.567 1.447 8.801 8.801 0 0 0 3.843-.211l10.623-28.578a91.152 91.152 0 0 0 5.712-34.334l-1.075-38.001s-24.513 2.041-38.81 19.775c-7.335 9.099-21.73 33.138-30.955 59.273a8.837 8.837 0 0 0 4.679 4.321Z" fill="#FFA800"/><path d="M57.495 203.683a8.835 8.835 0 0 1-5.62-7.459A8.827 8.827 0 0 1 38.86 195a8.859 8.859 0 0 1-1.74-4.525 8.82 8.82 0 0 1-13.022-1.224 8.852 8.852 0 0 1-1.731-4.533 8.83 8.83 0 0 1-7.584 2.155 8.831 8.831 0 0 1-6.285-4.766c-7.995 22.653-12.112 46.889-4.37 64.334 16.665 37.571 66.681 24.348 78.484 20.872 11.803-3.476 34.735-15.306 50.016-13.216 15.281 2.09 32.642 9.74 35.424 0 0 0 9.351-.239 6.407-9.148 0 0 4.701-.584 5.396-4.061 1.405-6.959-15.281-13.215-15.281-13.215s13.201 2.111 15.977-.704c3.512-3.518.098-9.197-21.464-14.433-23.684-5.742-54.941-2.266-101.48 6.08l5.446-14.658a8.753 8.753 0 0 1-5.558-.275Z" fill="#D69285"/><path d="m73.872 171.594-15.547 45.46" stroke="#FFCD6C" stroke-width="4" stroke-linecap="round" stroke-linejoin="round"/><path d="M168.769 228.172c-7.546-2.871-20.108-7.276-29.86-8.867m35.747 25.278c-9.695-4.37-28.215-12.301-38.177-13.793" stroke="#3A1F10" stroke-width="4" stroke-linecap="round" stroke-linejoin="round"/><path d="M57.72 217.152c-5.227.845-13.433 2.245-21.632 3.885" stroke="#FFCD6C" stroke-width="4" stroke-linecap="round" stroke-linejoin="round"/><path d="M167.764 255.054c-7.272-3.708-22.595-11.083-33.365-13.138" stroke="#3A1F10" stroke-width="4" stroke-linecap="round" stroke-linejoin="round"/><path d="M508.669 357.724c.002.452-.09.899-.27 1.313-1.263 2.883-6.662 3.31-12.032.95-4.498-1.972-7.555-5.273-7.686-7.987v36h20v-30.276h-.012Z" fill="#FFA800"/><path d="M500.988 349.47c-5.371-2.274-10.763-1.864-12.036.915a3.087 3.087 0 0 0-.265 1.448c.13 2.616 3.189 5.797 7.688 7.697 5.372 2.274 10.764 1.864 12.036-.915a3.01 3.01 0 0 0 .27-1.265c.013-2.649-3.084-5.936-7.693-7.88Z" fill="#FFCD6C"/><path d="M523.677 369c-.131 2.804-3.189 6.214-7.688 8.255-5.374 2.433-10.762 1.997-12.038-.986a3.488 3.488 0 0 1-.27-1.351V388h20v-19h-.004Z" fill="#FFA800"/><path d="M523.41 367.568c-1.263-2.992-6.663-3.434-12.038-.986-4.603 2.099-7.699 5.634-7.691 8.49 0 .467.091.929.27 1.358 1.263 2.996 6.663 3.434 12.038.99 4.498-2.05 7.556-5.476 7.686-8.292a3.522 3.522 0 0 0-.265-1.56Z" fill="#FFCD6C"/><path d="M505.681 388v-12" stroke="#FFCD6C" stroke-width="4" stroke-miterlimit="10" stroke-linecap="round"/><path d="M498.681 347v7m15 10v8" stroke="#3A1F10" stroke-width="4" stroke-linecap="round" stroke-linejoin="round"/><path d="M413.821 507c-.497 0-.986-.123-1.429-.359a3.185 3.185 0 0 1-1.115-1.002 3.38 3.38 0 0 1-.559-1.425 3.452 3.452 0 0 1 .121-1.535l9.829-31.415a3.3 3.3 0 0 1 1.144-1.639 3.047 3.047 0 0 1 1.842-.625h6.888a3.03 3.03 0 0 1 1.56.434c.475.285.871.696 1.148 1.191.277.495.425 1.057.431 1.631a3.418 3.418 0 0 1-.399 1.641l-16.734 31.415c-.271.51-.666.935-1.145 1.232a3.024 3.024 0 0 1-1.582.456Zm134.584 0a3.27 3.27 0 0 0 3.237-2.786 3.289 3.289 0 0 0-.126-1.535l-10.257-31.415a3.303 3.303 0 0 0-1.192-1.637 3.268 3.268 0 0 0-1.92-.627h-7.193a3.28 3.28 0 0 0-2.822 1.627 3.31 3.31 0 0 0-.037 3.27l17.463 31.415a3.278 3.278 0 0 0 2.847 1.688Z" fill="#3A1F10"/><path d="M563.681 388h-165v94h165v-94Z" fill="#D69285"/><path d="M551.681 400h-141v70h141v-70Z" fill="#FFC1B5"/><path d="M480.681 399v72" stroke="#D69285" stroke-width="4" stroke-miterlimit="10"/><path d="M497.681 439a4 4 0 1 0 0-8 4 4 0 0 0 0 8Zm-33 0a4 4 0 1 0 0-8 4 4 0 0 0 0 8Z" fill="#3A1F10"/><path d="M461.951 303s-3.242 7.427-11.748 7.427S438.438 303 438.438 303s-23.926 55.703-.412 85h24.309c23.501-29.297-.384-85-.384-85Z" fill="#727FFB"/><path d="M450.189 310c8.321 0 11.492-7 11.492-7h-23s3.184 7 11.508 7Z" fill="#3A1F10"/><path d="M472.681 352c-13.574.247-29.637 5.273-42 23m-2-36c9.093-2.571 26.311-5.02 43-.416m0 28.416c-6.014.069-17.131 6.679-15.906 20" stroke="#4856DF" stroke-width="4" stroke-linecap="round" stroke-linejoin="round"/><path d="M448.681 308c-.245-6.023-1.796-29.959-11-44" stroke="#3A1F10" stroke-width="4" stroke-miterlimit="10" stroke-linecap="round"/><path d="M446.674 289.503c1.205-2.045-5.182-8.055-14.265-13.423-9.083-5.367-17.423-8.06-18.628-6.015-1.205 2.046 5.182 8.055 14.265 13.423s17.423 8.061 18.628 6.015Z" fill="#3A1F10"/><path d="M443.148 230.212c1.768-1.01.859-5.944-2.031-11.02-2.889-5.077-6.666-8.373-8.434-7.363-1.768 1.01-.859 5.944 2.03 11.02 2.89 5.077 6.666 8.373 8.435 7.363Zm-31.288 21.782c.941-2.107 5.367-2.262 10.746-.647-3.316-5.971-4.331-11.525-2.139-12.956 2.192-1.431 6.825 1.736 10.891 7.231.716-5.604 2.656-9.597 4.972-9.622 2.926 0 5.321 6.497 5.35 14.533a35.942 35.942 0 0 1-.605 6.852 8.383 8.383 0 0 0-4.077-.751 8.391 8.391 0 0 0-3.939 1.299 8.46 8.46 0 0 0-2.846 3.034 8.515 8.515 0 0 0-1.064 4.033 35.53 35.53 0 0 1-6.249-2.178c-7.306-3.292-12.237-8.137-11.04-10.828Z" fill="#FF7054"/><path d="M433.542 257.363a8.473 8.473 0 0 1 8.139-.594c-.717 3.72-2.014 6.481-3.573 7.379-1.485 1.077-4.628 1.118-8.427.208a8.428 8.428 0 0 1 1.05-3.98 8.46 8.46 0 0 1 2.811-3.013Z" fill="#3A1F10"/><path d="M451.681 307c1.169-6.569 7.257-38.778 17-57" stroke="#3A1F10" stroke-width="4" stroke-miterlimit="10" stroke-linecap="round"/><path d="M501.106 294.983c.693-2.142-8.561-7.064-20.669-10.993-12.108-3.929-22.486-5.377-23.179-3.235-.693 2.143 8.561 7.065 20.669 10.994 12.109 3.929 22.486 5.377 23.179 3.234Z" fill="#3A1F10"/><path d="M466.754 222.008c2.27-.207 4.557 3.567 5.787 9.026 3.504-5.786 7.79-9.365 10.09-8.154 2.299 1.211 1.83 6.774-.913 12.977 5.166-2.095 9.555-2.36 10.694-.368 1.431 2.538-2.99 7.783-9.872 11.709a35.197 35.197 0 0 1-6.17 2.802 8.422 8.422 0 0 0-1.342-3.903 8.38 8.38 0 0 0-3.03-2.789 8.335 8.335 0 0 0-7.967.026 36.218 36.218 0 0 1-1.173-6.493c-.761-7.927 1.004-14.568 3.896-14.833Z" fill="#FF7054"/><path d="M471.993 242.986a8.724 8.724 0 0 1 3.25 2.869 8.49 8.49 0 0 1 1.438 4.048c-3.744 1.225-6.926 1.459-8.519.526-1.732-.777-3.373-3.546-4.481-7.367a8.938 8.938 0 0 1 8.312-.076Z" fill="#3A1F10"/><path d="M491.536 260v.035a8.71 8.71 0 0 0-4.528 4.403 8.956 8.956 0 0 0-.42 6.365 8.774 8.774 0 0 0 3.909 4.981 8.497 8.497 0 0 0 6.184.982v.034c-11.186 3.57-21.408 2.704-22.834-1.938-1.426-4.642 6.503-11.293 17.689-14.862Z" fill="#FF7054"/><path d="M489.117 274.569a4.156 4.156 0 0 0 2.158-2.146 4.513 4.513 0 0 0 .201-3.124 4.243 4.243 0 0 0-1.863-2.435 3.867 3.867 0 0 0-2.932-.446 9.054 9.054 0 0 1 1.75-3.874 8.407 8.407 0 0 1 3.271-2.544l4.979 16.792a7.923 7.923 0 0 1-4.044-.115 8.272 8.272 0 0 1-3.52-2.108Z" fill="#FFC1B5"/><path d="M491.5 268.91c.297.995.227 2.07-.196 3.013a4.045 4.045 0 0 1-2.087 2.077 8.618 8.618 0 0 1-2.157-3.626 8.956 8.956 0 0 1-.218-4.269 3.792 3.792 0 0 1 2.851.446 4.127 4.127 0 0 1 1.807 2.359Z" fill="#3A1F10"/></svg>