<svg width="789" height="630" fill="none" xmlns="http://www.w3.org/2000/svg"><path d="M141.996 337.035h-17.189v290.937h17.189V337.035Z" fill="#FFA800"/><path d="M142.003 341.035h-17.196" stroke="#A15842" stroke-width="4" stroke-miterlimit="10"/><path d="M46.81 569.593a25.386 25.386 0 0 1 9.303-12.333 25.553 25.553 0 0 1 14.757-4.688 25.553 25.553 0 0 1 14.757 4.688 25.387 25.387 0 0 1 9.304 12.333 25.384 25.384 0 0 1 8.735-11.92 25.552 25.552 0 0 1 13.919-5.065 63.258 63.258 0 0 0-7.992-11.151l-9.252-10.364a20.918 20.918 0 0 1-2.8-23.927l7.853-14.532c-2.205 2.209-14.95 14.093-34.293 14.093-19.344 0-32.088-11.884-34.293-14.093h-.035l7.86 14.532a20.905 20.905 0 0 1 2.352 12.417 20.942 20.942 0 0 1-5.236 11.51l-9.245 10.322a63.502 63.502 0 0 0-8.013 11.151 25.556 25.556 0 0 1 13.73 5.172 25.39 25.39 0 0 1 8.588 11.855Zm72.182 14.686a25.556 25.556 0 0 0-14.76 4.693 25.392 25.392 0 0 0-9.301 12.341 25.382 25.382 0 0 0-9.3-12.343 25.545 25.545 0 0 0-14.761-4.693c-5.29 0-10.45 1.64-14.761 4.693a25.382 25.382 0 0 0-9.3 12.343 25.417 25.417 0 0 0-12.037-14.025 25.588 25.588 0 0 0-18.392-2.208 62.998 62.998 0 0 0 18.196 42.892h72.917a62.995 62.995 0 0 0 18.196-42.794 25.422 25.422 0 0 0-6.697-.899Z" fill="#4756DF"/><path d="M71.045 506.755c19.344 0 32.088-11.883 34.293-14.093H36.752c2.205 2.189 14.95 14.093 34.293 14.093Z" fill="#3A1F10"/><path d="M46.809 601.313a25.382 25.382 0 0 1 9.3-12.343 25.545 25.545 0 0 1 14.76-4.693c5.291 0 10.45 1.64 14.762 4.693a25.382 25.382 0 0 1 9.3 12.343 25.397 25.397 0 0 1 12.199-14.119 25.569 25.569 0 0 1 18.594-2.016 63.01 63.01 0 0 0-8.125-32.57 25.55 25.55 0 0 0-13.919 5.065 25.385 25.385 0 0 0-8.735 11.92 25.39 25.39 0 0 0-9.304-12.333 25.553 25.553 0 0 0-14.757-4.688 25.553 25.553 0 0 0-14.757 4.688 25.39 25.39 0 0 0-9.304 12.333 25.39 25.39 0 0 0-8.602-11.818 25.549 25.549 0 0 0-13.716-5.146 62.997 62.997 0 0 0-8.112 32.451 25.588 25.588 0 0 1 18.393 2.208 25.417 25.417 0 0 1 12.037 14.025h-.014Z" fill="#727FFB"/><path d="M76.126 504.761c1.4-8.531 7.761-42.348 23.76-60.727m-31.143 60.971c-.105-9.688-1.106-57.257-10.603-85.637" stroke="#3A1F10" stroke-width="4" stroke-miterlimit="10" stroke-linecap="round"/><path d="M110.835 471.721c14.028-6.147 24.274-13.678 22.885-16.82-1.388-3.143-13.886-.708-27.913 5.439-14.028 6.147-24.273 13.678-22.885 16.82 1.389 3.143 13.886.708 27.913-5.439Zm-.008-86.471c5.043-6.79 7.204-13.713 4.827-15.464-2.377-1.752-8.392 2.333-13.435 9.123-5.043 6.789-7.204 13.713-4.827 15.464 2.377 1.751 8.392-2.333 13.435-9.123Zm-83.984 27.994c-5.451-3.132-10.76-4.139-11.858-2.247-1.098 1.891 2.43 5.964 7.882 9.097 5.45 3.132 10.76 4.139 11.857 2.247 1.098-1.891-2.43-5.964-7.881-9.097Zm8.037 63.303c18.287-2.754 32.715-7.594 32.227-10.81-.489-3.216-15.709-3.59-33.996-.836-18.287 2.754-32.715 7.594-32.227 10.81.489 3.216 15.71 3.591 33.996.836Z" fill="#3A1F10"/><path d="M22.104 429.042v.049a12.34 12.34 0 0 1 5.712 6.89c.972 2.927.808 6.11-.46 8.923a12.358 12.358 0 0 1-6.392 6.27 12.43 12.43 0 0 1-8.966.324v.042c15.327 6.858 30.03 7.381 32.83 1.171 2.8-6.21-7.39-16.811-22.724-23.669Zm45.316-49.708c-3.261-.843-7.503 4.07-10.603 11.674-3.73-9.235-9.14-15.417-12.786-14.218-3.646 1.199-4.297 9.367-1.77 19-7.041-4.266-13.382-5.702-15.502-3.088-2.702 3.331 2.505 11.974 11.631 19.313a52.244 52.244 0 0 0 8.342 5.534 12.3 12.3 0 0 1 2.894-5.335 12.368 12.368 0 0 1 5.099-3.315 12.42 12.42 0 0 1 11.638 1.959 52.147 52.147 0 0 0 3.261-9.116c2.947-11.298 1.96-21.335-2.204-22.408Zm71.146 51.304c-1.007-3.206-7.439-4.182-15.557-2.788 5.893-8.036 8.3-15.877 5.354-18.323-2.947-2.447-10.26 1.324-17.133 8.552-.084-8.211-2.218-14.33-5.563-14.741-4.263-.523-8.882 8.454-10.31 20.038a51.987 51.987 0 0 0-.307 9.987 12.43 12.43 0 0 1 6.081-.382 12.393 12.393 0 0 1 5.527 2.556 12.322 12.322 0 0 1 3.632 4.872 12.275 12.275 0 0 1 .856 6.008 53.316 53.316 0 0 0 9.497-2.09c11.177-3.464 19.204-9.605 17.923-13.689Z" fill="#FF7054"/><path d="M106.751 435.607a12.38 12.38 0 0 0-5.558-2.63 12.416 12.416 0 0 0-6.143.365c.399 5.513 1.798 9.758 3.905 11.298 1.966 1.812 6.516 2.419 12.177 1.757a12.26 12.26 0 0 0-.828-5.944 12.315 12.315 0 0 0-3.553-4.846ZM54.85 408.858a12.375 12.375 0 0 0-5.18 3.307 12.295 12.295 0 0 0-2.938 5.384c4.899 2.579 9.252 3.624 11.702 2.676 2.582-.697 5.5-4.23 7.929-9.367a12.4 12.4 0 0 0-11.513-2Z" fill="#3A1F10"/><path d="M23.47 449.735a5.992 5.992 0 0 1-2.782-3.352 5.966 5.966 0 0 1 .23-4.343 5.998 5.998 0 0 1 3.121-3.041 6.031 6.031 0 0 1 4.364-.137 12.278 12.278 0 0 0-1.923-5.663 12.356 12.356 0 0 0-4.376-4.095l-10.126 22.394a12.43 12.43 0 0 0 11.491-1.763Z" fill="#F5EBDD"/><path d="M20.893 442.048a5.962 5.962 0 0 0-.207 4.331 5.998 5.998 0 0 0 2.783 3.336 12.303 12.303 0 0 0 3.88-4.8 12.246 12.246 0 0 0 1.054-6.073 6.037 6.037 0 0 0-4.386.137 6.004 6.004 0 0 0-3.124 3.069Z" fill="#4856DF"/><path d="M483.396 453.296H305.404l3.009-11.89h78.131l29.8-116.06a73.444 73.444 0 0 1 26.23-39.829 73.974 73.974 0 0 1 45.245-15.441c40.095 0 69.433 37.637 59.488 76.319l-18.413 71.711a46.767 46.767 0 0 1-16.697 25.356 47.088 47.088 0 0 1-28.801 9.834Z" fill="#FF9F8C"/><path d="M306.783 563.133v12.587h113.438v-12.587H306.783Z" fill="#A15842"/><path d="m438.907 621.211-29.506-174.905h-91.806l-29.506 174.905a5.791 5.791 0 0 0 3.301 6.223 5.844 5.844 0 0 0 6.109-.749 5.81 5.81 0 0 0 2.04-3.285l38.645-177.094h50.656L427.471 623.4a5.808 5.808 0 0 0 2.039 3.287 5.848 5.848 0 0 0 3.658 1.285 5.86 5.86 0 0 0 2.448-.542 5.813 5.813 0 0 0 3.162-3.725 5.787 5.787 0 0 0 .129-2.494Z" fill="#A15842"/><path d="M400.758 563.132v12.587h113.439v-12.587H400.758Z" fill="#FFA800"/><path d="m532.883 621.211-29.534-174.905h-91.771l-29.506 174.905a5.791 5.791 0 0 0 3.301 6.223 5.844 5.844 0 0 0 6.107-.748 5.802 5.802 0 0 0 2.035-3.286l38.631-177.094h50.663L521.44 623.4a5.804 5.804 0 0 0 2.042 3.289 5.84 5.84 0 0 0 8.103-.775 5.794 5.794 0 0 0 1.298-4.703Z" fill="#FFA800"/><path d="m440.16 418.106 11.253-43.832H376.83a66.038 66.038 0 0 0-40.388 13.781 65.573 65.573 0 0 0-23.417 35.55l-7.621 29.691h89.251a47.102 47.102 0 0 0 28.806-9.831 46.772 46.772 0 0 0 16.699-25.359Z" fill="#FF9F8C"/><path d="M310.254 440.242h94.689m-18.063-.439 16.594-64.609m135.568-2.419h-44.791m53.189-31.363h-57.388" stroke="#A15842" stroke-width="4" stroke-linecap="round" stroke-linejoin="round"/><path d="M338.402 327.249s-56.149 15.229-80 27.112c-39.325 19.578-39.192 32.5-63.169 104.839-22.136 66.853-24.571 99.255-55.106 100.538-23.312.975-30.954 8.572-34.733 18.985l92.247 43.589a4.603 4.603 0 0 0 3.378.215 4.572 4.572 0 0 0 2.605-2.153 4.544 4.544 0 0 0 .388-3.416 4.566 4.566 0 0 0-2.116-2.717l-1.939-1.115c8.573-10.343 25.111-32.382 41.599-65.857l10.498 4.879s16.957-21.948 19.645-46.844c3.499-32.151 1.4-53.82 16.145-66.4l171.954-111.683-121.396.028Z" fill="#FF7054"/><path d="M131.064 564.903c1.827-3.784 11.974-26.84 17.811-24.052 7.594 3.624-12.114 26.77-12.114 26.77l-5.697-2.718Z" fill="#3A1F10"/><path d="m105.386 579.051 92.248 43.582a4.598 4.598 0 0 0 3.414.212 4.57 4.57 0 0 0 2.608-2.206 4.54 4.54 0 0 0 .345-3.389 4.565 4.565 0 0 0-2.112-2.681l-1.939-1.115.196-.237-63.406-29.81a38.995 38.995 0 0 0 1.987-8.099c9.49 1.638 28.694 3.402 28.792-4.481.105-7.346-20.869-4.398-28.533-2.321a31.012 31.012 0 0 0-1.637-8.287c-21.143 1.45-28.337 8.838-31.963 18.832Z" fill="#3A1F10"/><path d="M258.402 354.361c-4.417 2.196-8.329 4.307-11.835 6.426l-5.382 17.167 20.716-14.532L281 378.588l-7.041-20.791 21.633-9.869-16.72-2.091a208.765 208.765 0 0 0-20.47 8.524Zm61.034-8.935-1.4 9.082 9.126-3.492-7.726-5.59ZM266.8 390.855l-13.332 17.473-18.952-9.081 11.225 18.867-17.545 14.678 22.458-2.795 7.727 25.865 7.719-25.865 24.565-6.99-23.865-9.786v-22.366ZM191.846 524.27l1.637-4.656 22.396-1.185-18.196-12.336 8.104-19.327-18.329 12.169-3.499-3.764c-2.8 9.179-5.277 17.355-7.699 24.54h.112c.266-.787.532-1.582.798-2.39l14.676 6.949Z" fill="#FF9F8C"/><path d="m191.846 524.27-14.697-6.921c-.266.808-.532 1.603-.798 2.39-8.881 26.346-16.971 39.519-36.21 40.327-.945 0-1.855.091-2.75.153a31.027 31.027 0 0 1 1.637 8.287c7.699-2.091 28.638-5.025 28.533 2.321-.112 7.883-19.302 6.12-28.792 4.482a39.042 39.042 0 0 1-2.008 8.099l63.406 29.809c8.622-10.454 25.02-32.381 41.382-65.578l-49.703-23.369Z" fill="#EAA58B"/><path d="m247.848 471.237-2.099 18.874-19.652-.697 16.845 12.587-6.299 22.366 16.86-14.685 15.152 10.064a77.39 77.39 0 0 0 1.154-4.049l-5.808-14.407 9-9.82c.147-1.826.287-3.624.42-5.374l-15.719 2.614-9.854-17.473Zm-43.776-39.233c-1.77 5.451-3.674 11.368-5.773 17.801l18.672 1.136-12.899-18.937Z" fill="#FF9F8C"/><path d="M270.005 602.274c.294-4.181 1.211-29.342 7.664-28.889 8.398.585-1.365 29.329-1.365 29.329l-6.299-.44Z" fill="#3A1F10"/><path d="M425.435 328.274s-70.188 12.964-108.792 29.036c-38.975 16.232-38.597 45.059-31.584 123.364 6.299 70.101 17.552 104.141-5.599 114.624-21.233 9.618-28.61 21.676-27.602 32.702h104.523a4.508 4.508 0 0 0 3.172-1.309 4.467 4.467 0 0 0 1.314-3.159 4.46 4.46 0 0 0-1.314-3.159 4.497 4.497 0 0 0-3.172-1.308h-1.764c3.296-10.741 8.076-31.706 8.734-66.401h12.961s6.663-30.667-.699-58.016c-7.699-28.652-14.739-33.545-18.945-53.116h62.895c48.031 0 83.982-44.244 73.533-90.927-3.261-14.588-7.992-22.303-7.992-22.303l-59.669-.028Z" fill="#FF7054"/><path d="m381.918 369.186-12.884 16.142-20.065-6.865 11.891 19.382-15.439 20.972 20.352-8.391 11.344 20.825 1.288-22.923 19.652-4.189-16.839-10.489.7-24.464Zm-28.036 124.605 11.898 19.382-15.439 20.972 20.352-8.363 7.544 13.848c1.106-10.761 1.652-26.68-1.875-41.964l-2.408 3.018-20.072-6.893Zm-52.474 58.845-.903-10.803 22.787-8.754-21.569-4.454 2.379-23.578-13.997 18.24-.42-.175c1.344 11.256 2.52 21.091 3.177 29.601v-.077h8.546Z" fill="#FF9F8C"/><path d="M356.381 619.037h-1.764c3.296-10.741 8.076-31.706 8.734-66.401h-70.51v.063c.056.697.105 1.394.154 2.091v.195c1.463 21.78-.923 34.521-13.563 40.243-21.233 9.618-28.61 21.676-27.602 32.702h104.551c1.19 0 2.331-.471 3.172-1.309a4.458 4.458 0 0 0 0-6.318 4.493 4.493 0 0 0-3.172-1.308v.042Z" fill="#EAA58B"/><path d="m449.965 330.079-32.242 2.844 3.359 12.908-20.625 10.956 25.692 3.422 8.692 19.174 8.937-19.857 26.133-4.112-22.697-11.639 2.751-13.696Zm-153.673 90.829 7.698-24.463 22.458 3.485-17.545-15.376 12.597-14.678-23.158 8.364-3.702-6.322c-5.956 6.719-9.553 15.062-11.477 25.788l3.947.126 9.182 23.076Zm60.089-76.743a517.992 517.992 0 0 0-14.06 4.098l18.553 12.546-4.493-16.644Zm-30.612 113.09-9.826-20.268-4.913 22.366-18.245-1.394 16.839 14.679-10.526 24.463 18.273-16.964 15.145 17.389-4.64-26.289 15.438-20.268-17.545 6.286Z" fill="#FF9F8C"/><path d="M284.107 610.861c9.28-2.551 27.392-9.116 24.117-16.288-3.052-6.691-20.758 4.879-26.797 10.029a30.846 30.846 0 0 0-5.774-7.513c-18.322 9.291-24.754 20.54-23.795 30.883h104.523c1.189 0 2.33-.471 3.172-1.309a4.46 4.46 0 0 0 1.314-3.159 4.46 4.46 0 0 0-1.314-3.159 4.497 4.497 0 0 0-3.172-1.308h-70.615a39.53 39.53 0 0 0-1.659-8.176Z" fill="#3A1F10"/><path d="m356.381 443.072-18.07-.251m31.507-101.709c-18.721 4.754-38.73 10.587-53.888 16.888-32.333 13.486-37.575 35.622-34.433 87.533" stroke="#A15842" stroke-width="4" stroke-miterlimit="10" stroke-linecap="round"/><path d="M607.403 337.035h-17.188v290.937h17.188V337.035Z" fill="#FFA800"/><path d="M607.403 341.035h-17.188" stroke="#A15842" stroke-width="4" stroke-miterlimit="10"/><path d="M358.053 118.263c-9.798-1.394-32.242 9.095-32.984 29.83-.742 20.735 17.846 27.398 20.821 28.883l43.131-6.67 2.975-47.395-33.943-4.648Zm76.2-51.493c18.514 0 33.523-14.947 33.523-33.385S452.767 0 434.253 0c-18.514 0-33.523 14.947-33.523 33.385s15.009 33.385 33.523 33.385Z" fill="#A15842"/><path d="M412.509 56.343c2.043.941-15.166-39.727-23.949-33.385-8.265 5.987 13.57 28.618 23.949 33.385Z" fill="#3A1F10"/><path d="M413.461 58.832c1.875 2.23 45.784-13.069 39.709-21.892-5.809-8.49-41.585 19.654-39.709 21.892Z" fill="#3A1F10"/><path d="M471.751 170.681s29.478-24.463 10.498-51.722c-12.08-17.376-44.924-10.455-44.924-10.455.798-9.541 3.402-37.03-17.356-52.133-20.758-15.104-47.093-7.151-56.688 4.767-9.595 11.918-7.18 34.187-10.372 50.085-3.191 15.897-1.063 26.708 8.776 31.795 8.952 4.628 19.484 1.833 19.484 1.833l-1.119 16.777s-20.296.759-32.732 5.241C317.35 177.672 264.7 251.76 264.7 251.76a25287.31 25287.31 0 0 1-63.868-2.788l16.145 47.534s40.704 13.277 70.181 5.575c29.905-7.799 58.256-49.624 58.256-49.624l9.798 27.956-16.846 46.829h146.689l-24.565-43.338c4.248-38.431 11.261-113.223 11.261-113.223Z" fill="#EAA58B"/><path d="m424.616 159.885-38.492 69.51-15.746-67.07c-6.922.697-16.146 2.049-22.99 4.516C317.35 177.672 264.7 251.76 264.7 251.76a25287.31 25287.31 0 0 1-63.868-2.788l16.145 47.534s40.704 13.277 70.181 5.576c29.905-7.799 58.256-49.625 58.256-49.625l9.798 27.956-16.846 46.829h146.689l-24.565-43.33c4.199-38.445 11.198-113.237 11.198-113.237a68.238 68.238 0 0 0-21.052-8.364c-8.377-1.882-17.587-.76-26.02-2.426Z" fill="#4756DF"/><path d="M225.278 322.356h121.55l-27.637-86.926a12.64 12.64 0 0 0-4.599-6.387 12.727 12.727 0 0 0-7.501-2.444H204.367a12.744 12.744 0 0 0-5.745 1.365 12.692 12.692 0 0 0-4.502 3.807 12.607 12.607 0 0 0-1.854 11.291l22.843 71.885a10.623 10.623 0 0 0 3.869 5.36 10.692 10.692 0 0 0 6.3 2.049Z" fill="#3A1F10"/><path d="M243.39 265.923c3.226-4.391 17.86 7.206 18.938 8.161.56-.955 8.181-12.545 13.766-8.161 4.85 3.805-5.809 20.804-8.643 25.139a1.265 1.265 0 0 1-1.457.309 1.265 1.265 0 0 1-.426-.309c-5.172-4.335-24.977-21.334-22.178-25.139Z" fill="#A15842"/><path d="M261.122 268.862c1.221-.378 1.268-3.704.103-7.426-1.164-3.723-3.098-6.434-4.32-6.055-1.221.379-1.268 3.704-.103 7.427 1.164 3.723 3.098 6.433 4.32 6.054Z" fill="#A15842"/><path d="M417.408 312.571a7.5 7.5 0 0 1-1.123 6.688 7.57 7.57 0 0 1-6.072 3.069H225.278a10.692 10.692 0 0 1-6.3-2.049 10.619 10.619 0 0 1-3.869-5.359l-.756-2.377 203.055.028Z" fill="#3A1F10"/><path d="M637.021 322.356H95.19v17.474h541.83v-17.474Z" fill="#FFA800"/><path d="m528.887 418.106 11.254-43.832h-65.646a66.025 66.025 0 0 0-40.385 13.781 65.572 65.572 0 0 0-23.414 35.55l-7.628 29.691h80.308a47.097 47.097 0 0 0 28.808-9.831 46.766 46.766 0 0 0 16.703-25.359Z" fill="#FF9F8C"/><path d="m404.621 441.804-2.596 10.928" stroke="#A15842" stroke-width="4" stroke-linecap="round" stroke-linejoin="round"/><path d="M194.981 251.489c-8.167 4.063-12.247 10.837-12.247 15.584 0 6.928 7.082 8.231 7.082 8.231s-5.284 8.273 3.906 12.155c0 0 0 8.517 8.559 8.517 0 0-1.134 6.642 7.796 7.27 8.93.627 18.119-4.015 18.896-7.019.889-3.547-1.512-6.516-7.992-7.457 0 0 8.748-4.071 7.362-9.207-1.386-5.137-7.299-5.019-7.299-5.019s5.661-3.38 2.638-8.363c-3.023-4.984-8.804-3.255-8.804-3.255s1.512-3.485-1.134-6.14c-3.149-3.137-16.691.822-16.691.822l-2.072-6.119Z" fill="#EAA58A"/><path d="M202.344 296.304a102.367 102.367 0 0 0 21.317-7.667m-29.96-1.22a109.407 109.407 0 0 0 28.96-12.636m-33.544 1.513a90.59 90.59 0 0 0 26.482-12.775" stroke="#A15842" stroke-width="4" stroke-miterlimit="10" stroke-linecap="round"/><path d="M482.284 118.959c-12.08-17.376-44.924-10.455-44.924-10.455.798-9.541 3.401-37.03-17.356-52.133-20.758-15.104-47.093-7.151-56.688 4.767-3.905 4.879-5.816 11.444-6.928 18.61 6.368 1.066 15.711-1.116 15.711-1.116 12.772 14.309 24.215 16.581 24.215 16.581 8.937-8.9 24.614-8.607 27.161 4.879 2.646 14.002-19.813 20.296-19.813 20.296s-2.099 25.16 9.098 34.249a26.343 26.343 0 0 0 11.821 5.276c8.398 1.666 17.643.544 26.083 2.412a68.22 68.22 0 0 1 21.052 8.363 53.763 53.763 0 0 0 6.998-7.43c7.363-9.297 16.167-26.178 3.57-44.299Z" fill="#A15842"/><path d="M385.424 73.53c-4.199 3.486-9.098 5.576-14.738 6.97" stroke="#EAA58B" stroke-width="4" stroke-miterlimit="10" stroke-linecap="round"/><path d="M380.938 146.42a52.297 52.297 0 0 0 9.385-4.182m14.2-35.908 6.383-3.972m-43.006 22.63c1.323.815 6.299 1.45 8.273-2.335" stroke="#A15842" stroke-width="4" stroke-miterlimit="10" stroke-linecap="round"/><path d="M380.903 107.104a2.389 2.389 0 0 0 2.394-2.384 2.39 2.39 0 0 0-2.394-2.384 2.39 2.39 0 0 0-2.393 2.384 2.389 2.389 0 0 0 2.393 2.384Zm-19.841-3.157a2.389 2.389 0 0 0 2.394-2.384 2.39 2.39 0 0 0-2.394-2.384 2.389 2.389 0 0 0-2.393 2.384 2.389 2.389 0 0 0 2.393 2.384Z" fill="#3A1F10"/><path d="M367.803 110.77c-.476 1.498-.889 3.129-.616 3.673a4.032 4.032 0 0 0 1.637 1.624" stroke="#A15842" stroke-width="4" stroke-miterlimit="10" stroke-linecap="round"/><path d="M407.526 129.685c4.631 0 8.384-3.738 8.384-8.349 0-4.612-3.753-8.35-8.384-8.35-4.63 0-8.384 3.738-8.384 8.35 0 4.611 3.754 8.349 8.384 8.349Z" fill="#F5EBDD"/><path d="M367.192 102.903c1.451-7.425-2.814-14.498-9.526-15.798-6.712-1.3-13.328 3.664-14.779 11.089-1.45 7.424 2.815 14.497 9.526 15.798 6.712 1.3 13.329-3.664 14.779-11.089Zm30.409 3.713c1.45-7.425-2.815-14.498-9.526-15.798-6.712-1.3-13.329 3.664-14.779 11.088-1.451 7.425 2.814 14.498 9.526 15.799 6.712 1.3 13.328-3.665 14.779-11.089Zm-29.834-4.837 4.836.516m66.36 7.13-1.392 8.921" stroke="#3A1F10" stroke-width="4" stroke-miterlimit="10" stroke-linecap="round"/><path d="m337.702 234.287 6.774 19.634m29.016 25.098h-17.811m31.85-50.321 5.613 27.258v25.161" stroke="#3A1F10" stroke-width="4" stroke-linecap="round" stroke-linejoin="round"/><path d="m350.201 166.235 10.659 24.017-12.633-1.394 44.917 67.098m60.908-92.579-18.091 25.481 16.845-1.4-61.769 54.517m72.421 6.844L450 230.098m29.029 87.722c-7.327-2.433-20.477-7.131-28.407-11.849" stroke="#3A1F10" stroke-width="4" stroke-linecap="round" stroke-linejoin="round"/><path d="M276.913 144.391c7.603 0 13.766-6.138 13.766-13.709 0-7.572-6.163-13.71-13.766-13.71s-13.766 6.138-13.766 13.71c0 7.571 6.163 13.709 13.766 13.709Z" fill="#FF9F8C"/><path d="m235.77 76.123-8.015-9.624a3.509 3.509 0 0 0-4.927-.458l-.172.142a3.474 3.474 0 0 0-.46 4.907l8.015 9.625a3.509 3.509 0 0 0 4.927.458l.172-.143a3.474 3.474 0 0 0 .46-4.907Z" fill="#4756DF"/><path d="m250.186 87.818-8.063-9.688L97.205 197.8a6.151 6.151 0 0 0-.812 8.685l.161.195a6.187 6.187 0 0 0 4.189 2.202 6.21 6.21 0 0 0 4.525-1.394l45.308-37.427v131.33h12.646V159.606l86.964-71.788Z" fill="#727FFB"/><path d="m226.831 90.606 4.038 4.879a17.225 17.225 0 0 1 3.15 5.729" stroke="#4756DF" stroke-width="4" stroke-miterlimit="10"/><path d="M156.895 172.968c9.111 0 16.496-7.355 16.496-16.428s-7.385-16.428-16.496-16.428c-9.11 0-16.495 7.355-16.495 16.428s7.385 16.428 16.495 16.428Z" fill="#4756DF"/><path d="M156.895 162.854c3.502 0 6.341-2.827 6.341-6.314 0-3.488-2.839-6.315-6.341-6.315-3.502 0-6.34 2.827-6.34 6.315 0 3.487 2.838 6.314 6.34 6.314Z" fill="#727FFB"/><path d="m288.215 122.897-21.1 17.369" stroke="#A15842" stroke-width="4" stroke-miterlimit="10"/><path d="M260.879 86.062a17.387 17.387 0 0 1-11.351-6.147l-5.599-6.74a11.721 11.721 0 0 0-16.447-1.526 11.625 11.625 0 0 0-4.171 7.87c-.143 1.52.017 3.053.47 4.512a11.614 11.614 0 0 0 2.169 3.99l5.599 6.76a17.247 17.247 0 0 1 3.94 12.211l-1.4 20.38a46.488 46.488 0 0 0 7.25 28.325l1.792 2.787 67.137-55.458-2.408-2.251a46.89 46.89 0 0 0-26.594-12.343l-20.387-2.37Zm-97.657 215.33h-12.646l-18.693 5.074a16.54 16.54 0 0 0-8.791 5.893 16.427 16.427 0 0 0-3.393 9.998h74.394a16.43 16.43 0 0 0-3.397-10 16.536 16.536 0 0 0-8.795-5.891l-18.679-5.074Z" fill="#727FFB"/><path d="m297.531 93.165-61.44 50.572m-85.823 156.212h12.954m-41.067 13.696h69.061" stroke="#4756DF" stroke-width="4" stroke-miterlimit="10" stroke-linecap="round"/><path d="M520.188 502.161c1.399-11.848.7-38.445-14.739-58.713s5.599-11.848 11.897-6.273c10.078 8.922 18.952 17.474 26.672 46.133l-23.83 18.853Z" fill="#3A1F10"/><path d="M706.607 627.972H789v-2.683a14.236 14.236 0 0 0-4.199-10.084 14.356 14.356 0 0 0-10.127-4.177H706.18l.427 16.944Z" fill="#A15842"/><path d="m505.616 549.632 17.378 78.34h32.291v-4.879c0-3.146-1.252-6.163-3.483-8.39a11.954 11.954 0 0 0-8.415-3.493s16.139-12.051 25.965-23.934c0 0 16.845 20.442 40.71 16.943l1.729 8.364a19.271 19.271 0 0 0 6.72 11.044 19.42 19.42 0 0 0 12.211 4.345h78.264c34.713 0 51.789-5.276 52.769-24.959a5.554 5.554 0 0 0-1.559-4.087 5.595 5.595 0 0 0-4.04-1.712h-21.849a6.017 6.017 0 0 1-4.696-2.237l-9.301-11.493a22.94 22.94 0 0 0-10.601-7.323 23.018 23.018 0 0 0-12.893-.462l-18.707 4.76s-33.145-47.436-63.169-80.381c-28.694-31.455-82.666-34.849-103.928 6.119a64.163 64.163 0 0 0-5.396 43.435Z" fill="#A15842"/><path d="M701.267 627.972v-2.683a14.239 14.239 0 0 0-4.197-10.086 14.302 14.302 0 0 0-4.647-3.091 14.374 14.374 0 0 0-5.482-1.084h-9.539" stroke="#3A1F10" stroke-width="4" stroke-miterlimit="10"/><path d="M570.654 587.833c4.899-5.805 21.618-27.182 20.421-48.091-1.28-22.372-14.738-34.249-14.738-34.249m29.478 69.188s.895 16.539 2.694 28.89m-70.069 17.243v6.461m7.719-6.461v6.461m139.669-6.461v6.461m7.719-6.461v6.461" stroke="#3A1F10" stroke-width="4" stroke-miterlimit="10" stroke-linecap="round"/><path d="M714.249 601.94a3.15 3.15 0 0 0 3.156-3.143 3.15 3.15 0 0 0-3.156-3.143 3.15 3.15 0 0 0-3.156 3.143 3.15 3.15 0 0 0 3.156 3.143Zm-17.223-26.304v-.083l-18.945 4.878 18.707-4.76.238-.035Z" fill="#3A1F10"/><path d="M650.402 611.342c-5.487 2.788-13.241 8.245-12.597 16.511h30.471l6.404-10.057c1.047-1.645 2.493-3 4.206-3.939a11.647 11.647 0 0 1 5.592-1.435h2.036l10.442-36.577-.154-.16-18.707 4.76-17.909 22.847a29.482 29.482 0 0 1-9.784 8.05Z" fill="#3A1F10"/><path d="M605.898 517.153s-8.475 29.217 18.896 40.25c13.878 5.576 25.405 1.346 33.404-4.181-12.086-16.031-28.078-36.438-43.265-53.11a73.565 73.565 0 0 0-12.751-11.089c-4.143 5.618-8.678 19.516 3.716 28.13Zm-69.914 21.188c6.396 0 11.582-5.164 11.582-11.535 0-6.37-5.186-11.535-11.582-11.535-6.397 0-11.583 5.165-11.583 11.535 0 6.371 5.186 11.535 11.583 11.535Z" fill="#EAA58B"/><path d="M756.184 597.214h-4.199a8.022 8.022 0 0 0 1.68 6.669 8.074 8.074 0 0 0 2.786 2.17 8.13 8.13 0 0 0 3.449.78 7.88 7.88 0 0 0 1.47-.14c.214-1.217.352-2.446.413-3.68a5.552 5.552 0 0 0-1.559-4.087 5.595 5.595 0 0 0-4.04-1.712Z" fill="#3A1F10"/><path d="M772.855 620.814v6.301m7.719-6.301v6.301" stroke="#3A1F10" stroke-width="4" stroke-miterlimit="10" stroke-linecap="round"/><path d="M730.5 627.135c17.16-1.721 27.392-6.349 31.108-16.197" stroke="#3A1F10" stroke-width="4" stroke-linecap="round" stroke-linejoin="round"/><path d="M450.699 260.437c-8.636-.77-17.32-.865-25.971-.285-12.374 1.01-29.009 4.237-35.693 7.457-6.683 3.22-32.277 14.588-25.383 18.4 6.298 3.485 19.512-1.756 19.512-1.756s-13.186 12.071-15.453 17.124c-2.268 5.054 5.228 7.89 5.228 7.89 1.973 8.629 10.805 4.921 10.805 4.921 5.564 11.786 35.623-13.751 35.623-13.751 7.151.74 14.373.437 21.436-.899 0 0 3.807 2.125 9.917 5.08l-.021-44.181Z" fill="#EAA58A"/><path d="M525.793 319.561c56.149-26.561-25.243-125.803-54.042-148.88l-16.139 65.007 20.352 27.955c-8.916-1.533-17.44-2.586-25.264-3.206v44.181c17.818 8.629 55.26 24.352 75.093 14.943Z" fill="#4756DF"/><path d="M380.477 284.985c4.982-4.105 13.255-10.74 19.427-14.741m6.803 9.806c-14.34 9.249-27.406 21.606-33.873 28.074m40.235-17.612c-9.798 6.698-21.17 16.853-28.596 23.823" stroke="#A15842" stroke-width="4" stroke-miterlimit="10" stroke-linecap="round"/><path d="M581.522 286.755a4.023 4.023 0 0 1 2.829 1.17 3.986 3.986 0 0 1 1.174 2.817v.592a3.986 3.986 0 0 1-1.174 2.817 4.019 4.019 0 0 1-2.829 1.17h-20.624v-8.566h20.624Zm0-5.575h-25.467a.745.745 0 0 0-.537.223.742.742 0 0 0-.219.536v18.226c0 .2.079.391.221.532a.76.76 0 0 0 .535.221h25.467a9.63 9.63 0 0 0 6.797-2.808 9.56 9.56 0 0 0 2.805-6.776v-.613a9.547 9.547 0 0 0-2.812-6.762 9.623 9.623 0 0 0-6.79-2.8v.021Z" fill="#727FFB"/><path d="M550.729 278.175c-20.855 0-30.492-16.553-30.492-16.553l13.997 60.734h32.949l13.997-60.734a35.753 35.753 0 0 1-13.077 12.196 35.917 35.917 0 0 1-17.374 4.357Z" fill="#727FFB"/><path d="M550.729 278.175a35.906 35.906 0 0 0 17.397-4.347 35.745 35.745 0 0 0 13.096-12.206h-60.985s9.637 16.553 30.492 16.553Z" fill="#3A1F10"/></svg>