<svg width="48" height="48" fill="none" xmlns="http://www.w3.org/2000/svg"><path fill="#DAE2FF" d="M0 0h48v48H0z"/><path d="M22.583 32.5v4.25a1.42 1.42 0 0 1-1.416 1.417 1.42 1.42 0 0 1-1.417-1.417V32.5h2.833Zm5.667 0v4.25a1.42 1.42 0 0 1-1.417 1.417 1.42 1.42 0 0 1-1.416-1.417V32.5h2.833Zm2.833-9.917v7.084A2.842 2.842 0 0 1 28.25 32.5h-8.5a2.842 2.842 0 0 1-2.833-2.833v-7.084a2.842 2.842 0 0 1 2.833-2.833h8.5a2.842 2.842 0 0 1 2.833 2.833Zm-17 0v5.667a1.42 1.42 0 0 1-1.416 1.417 1.42 1.42 0 0 1-1.417-1.417v-5.667a1.42 1.42 0 0 1 1.417-1.416 1.42 1.42 0 0 1 1.416 1.416Zm22.667 0v5.667a1.42 1.42 0 0 1-1.417 1.417 1.42 1.42 0 0 1-1.416-1.417v-5.667a1.42 1.42 0 0 1 1.416-1.416c.78 0 1.417.637 1.417 1.416ZM20.6 17.767h6.8a2.273 2.273 0 0 0 2.267-2.267A5.665 5.665 0 0 0 24 9.833a5.665 5.665 0 0 0-5.667 5.667 2.273 2.273 0 0 0 2.267 2.267Z" fill="#305DFF"/></svg>