<svg width="48" height="48" fill="none" xmlns="http://www.w3.org/2000/svg"><path fill="#D1F7FF" d="M0 0h48v48H0z"/><path fill-rule="evenodd" clip-rule="evenodd" d="M34.058 34.143c.836-1.275 1.148-1.926 1.785-3.357C31.14 29 30.39 22.3 35.036 19.736c-1.417-1.785-3.414-2.82-5.299-2.82-1.36 0-2.294.355-3.13.68-.709.27-1.346.51-2.14.51-.85 0-1.6-.269-2.394-.552-.864-.311-1.77-.637-2.904-.637-2.11 0-4.363 1.289-5.794 3.499-2.012 3.116-1.658 8.953 1.587 13.94 1.161 1.785 2.72 3.782 4.745 3.81.85.015 1.403-.24 2.012-.51.694-.311 1.445-.651 2.763-.651 1.317-.014 2.054.34 2.748.652.595.269 1.133.524 1.97.51 2.053-.029 3.697-2.239 4.858-4.024ZM29.44 9.833c.227 1.559-.41 3.103-1.247 4.18-.892 1.161-2.45 2.068-3.952 2.011-.27-1.502.425-3.046 1.275-4.08.949-1.133 2.55-2.012 3.924-2.11Z" fill="#00BEE6"/></svg>