<svg width="48" height="48" fill="none" xmlns="http://www.w3.org/2000/svg"><path fill="#FFCCC1" d="M0 0h48v48H0z"/><path d="M27.175 11.35a2.79 2.79 0 0 0-2.788 2.787v5.8a2.79 2.79 0 0 0 2.788 2.788 2.79 2.79 0 0 0 2.787-2.788v-5.8a2.798 2.798 0 0 0-2.787-2.787Zm7.05 6.537a2.427 2.427 0 0 0-2.425 2.425v1.963c0 .263.213.475.475.475h1.963a2.427 2.427 0 0 0 2.425-2.425 2.45 2.45 0 0 0-2.438-2.438Zm-14.6-.149h-5.8a2.79 2.79 0 0 0-2.787 2.787 2.79 2.79 0 0 0 2.787 2.788h5.8a2.79 2.79 0 0 0 2.788-2.788 2.79 2.79 0 0 0-2.788-2.787Zm.363-6.713a2.427 2.427 0 0 0-2.425 2.425 2.427 2.427 0 0 0 2.425 2.425h1.962a.475.475 0 0 0 .475-.475v-1.963a2.452 2.452 0 0 0-2.438-2.412Zm.8 14.263A2.79 2.79 0 0 0 18 28.075v5.8a2.79 2.79 0 0 0 2.788 2.788 2.79 2.79 0 0 0 2.787-2.788v-5.8a2.79 2.79 0 0 0-2.787-2.787Zm-5.088 0h-1.962a2.427 2.427 0 0 0-2.425 2.424 2.427 2.427 0 0 0 2.425 2.425 2.427 2.427 0 0 0 2.425-2.425V25.75a.47.47 0 0 0-.463-.462Zm18.438-.576h-5.8A2.79 2.79 0 0 0 25.55 27.5a2.79 2.79 0 0 0 2.788 2.788h5.8a2.79 2.79 0 0 0 2.787-2.788 2.79 2.79 0 0 0-2.787-2.788Zm-6.163 7.375h-1.963a.475.475 0 0 0-.474.475v1.963a2.427 2.427 0 0 0 2.424 2.425 2.427 2.427 0 0 0 2.425-2.425 2.411 2.411 0 0 0-2.412-2.438Z" fill="#FF6534"/></svg>