<svg width="50" height="50" fill="none" xmlns="http://www.w3.org/2000/svg"><path opacity=".1" fill="#FF694B" d="M0 0h50v50H0z"/><path d="M22 26c-.66.33-1.21.82-1.62 1.43-.23.35-.23.79 0 1.14.41.61.96 1.1 1.62 1.43m6.21-4c.66.33 1.21.82 1.62 1.43.23.35.23.79 0 1.14-.41.61-.96 1.1-1.62 1.43" stroke="#FF694B" stroke-width="1.5" stroke-linecap="round" stroke-linejoin="round"/><path d="M22 35h6c5 0 7-2 7-7v-6c0-5-2-7-7-7h-6c-5 0-7 2-7 7v6c0 5 2 7 7 7Zm-6.77-13.99L34.45 21" stroke="#FF694B" stroke-width="1.5" stroke-linecap="round" stroke-linejoin="round"/></svg>