<svg width="50" height="50" fill="none" xmlns="http://www.w3.org/2000/svg"><path fill="#FF694B" d="M0 0h50v50H0z"/><path d="M21.5 31.97H21c-4 0-6-1-6-6v-5c0-4 2-6 6-6h8c4 0 6 2 6 6v5c0 4-2 6-6 6h-.5c-.31 0-.61.15-.8.4l-1.5 2c-.66.88-1.74.88-2.4 0l-1.5-2c-.16-.22-.52-.4-.8-.4Z" stroke="#fff" stroke-width="1.5" stroke-miterlimit="10" stroke-linecap="round" stroke-linejoin="round"/><path d="m21 21.7-2 2 2 2m8-4 2 2-2 2m-3-4.33-2 4.66" stroke="#fff" stroke-width="1.5" stroke-miterlimit="10" stroke-linecap="round" stroke-linejoin="round"/></svg>